<svg width="107" height="80" viewBox="0 0 107 80" fill="none" xmlns="http://www.w3.org/2000/svg">
<rect x="0.25" y="0.25" width="106.5" height="79.5" fill="#2EC4B6" fill-opacity="0.2"/>
<rect x="0.25" y="0.25" width="106.5" height="79.5" stroke="#2EC4B6" stroke-width="0.5"/>
<path d="M84.4835 49.6204L84.35 49.7397V49.9188V70L84.35 70.0006C84.3502 70.1499 84.3111 70.2966 84.2366 70.426C84.1621 70.5554 84.0548 70.6629 83.9255 70.7376C83.7963 70.8124 83.6496 70.8518 83.5003 70.8518C83.351 70.8519 83.2043 70.8126 83.075 70.738L83.0735 70.7371L74.9485 66.0933L74.75 65.9799L74.5515 66.0933L66.4265 70.7371L66.425 70.738C66.2957 70.8126 66.149 70.8519 65.9997 70.8518C65.8504 70.8518 65.7037 70.8124 65.5745 70.7376C65.4452 70.6629 65.3379 70.5554 65.2634 70.426C65.1889 70.2966 65.1498 70.1499 65.15 70.0006V70V61.25V60.85H64.75H26C25.1115 60.85 24.2594 60.4971 23.6312 59.8688C23.0029 59.2406 22.65 58.3885 22.65 57.5V17.5C22.65 16.6115 23.0029 15.7594 23.6312 15.1312C24.2594 14.5029 25.1115 14.15 26 14.15H81C81.8885 14.15 82.7406 14.5029 83.3688 15.1312C83.9971 15.7594 84.35 16.6115 84.35 17.5V27.5813V27.7603L84.4835 27.8796C86.0143 29.2468 87.239 30.9218 88.0775 32.7951C88.9161 34.6684 89.3495 36.6976 89.3495 38.75C89.3495 40.8024 88.9161 42.8316 88.0775 44.7049C87.239 46.5782 86.0143 48.2532 84.4835 49.6204ZM64.75 59.15H65.15V58.75V49.9188V49.7412L65.0184 49.6221C62.3497 47.2077 60.6669 43.8927 60.2928 40.3134C59.9187 36.7342 60.8797 33.1429 62.9913 30.2288C65.103 27.3147 68.2165 25.2831 71.7343 24.5241C75.2521 23.7651 78.9263 24.332 82.0517 26.1161L82.65 26.4577V25.7687V17.5C82.65 17.0624 82.4762 16.6427 82.1667 16.3333C81.8573 16.0238 81.4376 15.85 81 15.85H26C25.5624 15.85 25.1427 16.0238 24.8333 16.3333C24.5238 16.6427 24.35 17.0624 24.35 17.5V57.5C24.35 57.9376 24.5238 58.3573 24.8333 58.6667C25.1427 58.9762 25.5624 59.15 26 59.15H64.75ZM82.65 51.7312V51.0366L82.0492 51.3853C79.8319 52.6723 77.3137 53.3501 74.75 53.3501C72.1863 53.3501 69.6681 52.6723 67.4508 51.3853L66.85 51.0366V51.7312V67.8469V68.5364L67.4486 68.1941L74.3236 64.2629L74.325 64.262C74.4542 64.1874 74.6008 64.1482 74.75 64.1482C74.8992 64.1482 75.0458 64.1874 75.175 64.262L75.1764 64.2629L82.0514 68.1941L82.65 68.5364V67.8469V51.7312ZM51.85 42.5C51.85 42.7254 51.7604 42.9416 51.601 43.101C51.4416 43.2604 51.2254 43.35 51 43.35H36C35.7746 43.35 35.5584 43.2604 35.399 43.101C35.2396 42.9416 35.15 42.7254 35.15 42.5C35.15 42.2746 35.2396 42.0584 35.399 41.899C35.5584 41.7396 35.7746 41.65 36 41.65H51C51.2254 41.65 51.4416 41.7396 51.601 41.899C51.7604 42.0584 51.85 42.2746 51.85 42.5ZM36 31.65H51C51.2254 31.65 51.4416 31.7396 51.601 31.899C51.7604 32.0584 51.85 32.2746 51.85 32.5C51.85 32.7254 51.7604 32.9416 51.601 33.101C51.4416 33.2604 51.2254 33.35 51 33.35H36C35.7746 33.35 35.5584 33.2604 35.399 33.101C35.2396 32.9416 35.15 32.7254 35.15 32.5C35.15 32.2746 35.2396 32.0584 35.399 31.899C35.5584 31.7396 35.7746 31.65 36 31.65ZM74.75 25.85C72.1986 25.85 69.7045 26.6066 67.5831 28.024C65.4618 29.4415 63.8083 31.4562 62.832 33.8134C61.8556 36.1706 61.6001 38.7643 62.0979 41.2667C62.5956 43.769 63.8242 46.0676 65.6283 47.8717C67.4324 49.6758 69.731 50.9044 72.2333 51.4021C74.7357 51.8999 77.3295 51.6444 79.6866 50.668C82.0438 49.6917 84.0585 48.0382 85.476 45.9169C86.8934 43.7955 87.65 41.3014 87.65 38.75C87.65 35.3287 86.2909 32.0475 83.8717 29.6283C81.4525 27.2091 78.1713 25.85 74.75 25.85Z" fill="#2EC4B6" stroke="#D5F3F0" stroke-width="0.8"/>
</svg>
